<svg class="svg-icon" style="width: 1em;height: 1em;vertical-align: middle;fill: currentColor;overflow: hidden;" viewBox="0 0 1024 1024" version="1.1" xmlns="http://www.w3.org/2000/svg"><path d="M763.672 0C556.026 0 504.296 188.618 506.568 493.786h0.008s-1.524 52.894 60.816 92.652H959.94c62.34-39.758 60.816-92.652 60.816-92.652h0.018C1023.046 188.618 971.316 0 763.672 0z" fill="#CF8151" /><path d="M763.666 508.018c-69.664 0-146.32 20.622-196.27 78.414 10.002 6.38 21.642 12.422 35.202 17.854h322.136c13.562-5.43 25.2-11.474 35.202-17.854-49.95-57.792-126.606-78.414-196.27-78.414z" fill="#BD6E45" /><path d="M674.772 197.762c-10.226 21.894-33.678 61.642-75.548 80.694a10.326 10.326 0 0 0-6.076 9.388v59.004c0 94.178 76.346 174.788 170.522 174.788 94.178 0 170.524-80.61 170.524-174.788v-71.334a10.314 10.314 0 0 0-10.686-10.316c-37.664 1.338-165.546 0.304-231.852-70.116-5.018-5.332-13.786-3.954-16.884 2.68z" fill="#F0C69E" /><path d="M763.67 502.474c-94.178 0-170.522-76.346-170.522-170.522v37.162c0 94.178 76.346 170.522 170.522 170.522 94.178 0 170.524-76.346 170.524-170.522v-37.162c0 94.176-76.346 170.522-170.524 170.522z" fill="#E6BA94" /><path d="M478.816 834.218c1.688-29.034 1.502-55.436-0.326-79.428H74.822c-1.828 23.992-2.014 50.394-0.326 79.428z" fill="#26457D" /><path d="M70.796 841.784c0 32.598 16.488 50.97 38.116 50.97l14.742-18.792 17.95-32.178-18-32.184a51.692 51.692 0 0 0-5.278-0.27c-21.628 0-40.1 13.46-47.53 32.454z" fill="#E2AE84" /><path d="M118.326 874.24c-21.628 0-40.1-13.46-47.532-32.456a50.866 50.866 0 0 0-3.504 18.58c0 28.186 22.848 51.036 51.036 51.036 3.566 0 7.046-0.368 10.404-1.064l12.872-17.584-17.95-18.79a51.46 51.46 0 0 1-5.326 0.278z" fill="#D7A379" /><path d="M482.528 841.784c0 32.598-16.488 50.97-38.116 50.97l-14.742-18.792-17.95-32.178 18-32.184a51.72 51.72 0 0 1 5.278-0.27c21.628 0 40.1 13.46 47.53 32.454z" fill="#E2AE84" /><path d="M434.998 874.24c21.628 0 40.1-13.46 47.532-32.456a50.866 50.866 0 0 1 3.504 18.58c0 28.186-22.85 51.036-51.036 51.036-3.566 0-7.046-0.368-10.404-1.064l-12.872-17.584 17.95-18.79a51.46 51.46 0 0 0 5.326 0.278z" fill="#D7A379" /><path d="M379.382 754.79l-104.47-18-100.97 18c-29.152 48-50.33 54.808-50.338 54.81v40.912c0 84.532 68.526 155.488 153.058 155.488s153.058-70.956 153.058-155.488V809.6s-21.182-6.806-50.338-54.81z" fill="#F0C69E" /><path d="M276.662 986.838c-84.532 0-153.058-68.526-153.058-153.058v37.162c0 84.532 68.526 153.058 153.058 153.058s153.058-68.526 153.058-153.058V833.78c0 84.532-68.528 153.058-153.058 153.058z" fill="#E6BA94" /><path d="M484.528 717.628c-20.928-136.818-116.542-177.992-207.872-177.992s-186.944 41.174-207.872 177.992l207.878 18z" fill="#DC4955" /><path d="M68.772 717.628a352.878 352.878 0 0 0-2.974 26.066c-0.464 5.982 4.304 11.096 10.304 11.096h135.478l65.082-18 65.082 18h135.468c6.002 0 10.768-5.114 10.304-11.096a353 353 0 0 0-2.974-26.066z" fill="#D82F3C" /><path d="M341.646 702.402c-1.832-34.304-30.224-61.556-64.984-61.556-34.76 0-63.152 27.252-64.984 61.556l64.978 18z" fill="#26457D" /><path d="M211.58 717.628v-15.226h130.164v15.226l-65.082 18z" fill="#F6E080" /><path d="M211.58 717.628h130.164v37.162H211.58z" fill="#ECCD61" /><path d="M601.796 891.556l-32.276-12.906s-43.924 21.806-41.81 102.544c53.006 7.916 84.362-39.82 74.086-89.638zM959.616 825.17c45.332-222.796-85.966-285.534-195.95-285.534s-241.282 62.738-195.95 285.534z" fill="#CF8151" /><path d="M620.284 898.948l-18.488-7.392c-6.988 51.674-51.152 78.86-74.088 89.64 0.24 9.188 1.072 19.136 2.636 29.902 0.99 6.824 8.264 10.788 14.532 7.914 26.382-12.094 84.996-47.474 75.408-120.064z" fill="#BD6E45" /><path d="M564.354 831.932c0 20.632 14.318 49.154 35.066 49.154l15.926-18.532 17.35-15.14-17.38-46.106a50.266 50.266 0 0 0-5.116-0.262c-20.748-0.002-38.5 12.776-45.846 30.886z" fill="#E2AE84" /><path d="M610.2 862.818c-20.746 0-38.5-12.778-45.846-30.888a49.3 49.3 0 0 0-3.622 18.58c0 27.32 22.148 49.468 49.468 49.468a49.72 49.72 0 0 0 10.086-1.032l17.16-20.298-22.1-16.098c-1.692 0.178-3.408 0.268-5.146 0.268z" fill="#D7A379" /><path d="M925.544 891.556l32.276-12.906s43.924 21.806 41.81 102.544c-53.006 7.916-84.36-39.82-74.086-89.638z" fill="#CF8151" /><path d="M907.056 898.948l18.488-7.392c6.988 51.674 51.152 78.86 74.088 89.64-0.24 9.188-1.072 19.136-2.636 29.902-0.99 6.824-8.264 10.788-14.532 7.914-26.382-12.094-84.994-47.474-75.408-120.064z" fill="#BD6E45" /><path d="M962.988 831.932c0 20.632-14.318 49.154-35.066 49.154l-15.926-18.532-17.35-15.14 17.38-46.106a50.256 50.256 0 0 1 5.114-0.262c20.748-0.002 38.5 12.776 45.848 30.886z" fill="#E2AE84" /><path d="M917.142 862.818c20.746 0 38.5-12.778 45.846-30.888a49.3 49.3 0 0 1 3.622 18.58c0 27.32-22.148 49.468-49.468 49.468-3.456 0-6.828-0.358-10.086-1.032l-17.16-20.298 22.1-16.098c1.692 0.178 3.408 0.268 5.146 0.268z" fill="#D7A379" /><path d="M772.338 680.49c53.072 81.934 139.688 120.854 139.688 120.854v41.422c0 81.934-66.422 148.356-148.356 148.356s-148.356-66.422-148.356-148.356v-41.422s86.616-38.922 139.688-120.854c4.094-6.318 13.244-6.318 17.336 0z" fill="#F0C69E" /><path d="M763.67 971.96c-81.934 0-148.356-66.42-148.356-148.356v37.162c0 81.934 66.422 148.356 148.356 148.356s148.356-66.42 148.356-148.356v-37.162c0 81.934-66.42 148.356-148.356 148.356z" fill="#E6BA94" /><path d="M508.606 307.916c73.198-237.202-118.604-245.69-118.604-245.69S367.194 0 264.554 0C166.012 0 103.684 30.326 18.126 16.888c-5.912-0.928-11.412 3.248-11.966 9.208-3.842 41.464-12.892 188.872 42.544 270.07z" fill="#26457D" /><path d="M100.254 263.308c-22.822 0-42.492 13.452-51.544 32.854 4.414 6.464 9.23 12.514 14.498 18.052l67.782 1.368-24.856-51.974a57.696 57.696 0 0 0-5.88-0.3zM501.89 328.198a530.344 530.344 0 0 0 6.688-20.29c-5.608-25.508-28.328-44.602-55.52-44.602-1.986 0-3.946 0.104-5.88 0.302l-19.82 62.846z" fill="#21386B" /><path d="M46.516 338.748c0 29.176 16.386 57.99 41.278 57.99l18.524-20.038 32.46-15.204-32.646-60.724a57.694 57.694 0 0 0-5.88-0.302c-24.892-0.002-46.034 16.002-53.736 38.278z" fill="#E2AE84" /><path d="M100.254 377.026c-24.894 0-46.036-16.004-53.736-38.278a56.74 56.74 0 0 0-3.122 18.58c0 31.402 25.456 56.86 56.86 56.86 3.972 0 7.85-0.41 11.592-1.186l11.592-20.576-17.118-15.726a57.4 57.4 0 0 1-6.068 0.326z" fill="#D7A379" /><path d="M506.796 338.748c0 29.176-16.386 57.99-41.278 57.99l-18.524-20.038-32.458-15.204 32.646-60.724a57.666 57.666 0 0 1 5.88-0.302c24.892-0.002 46.034 16.002 53.734 38.278z" fill="#E2AE84" /><path d="M453.06 377.026c24.894 0 46.036-16.004 53.736-38.278a56.74 56.74 0 0 1 3.122 18.58c0 31.402-25.456 56.86-56.86 56.86-3.972 0-7.85-0.41-11.592-1.186l-11.592-20.576 17.118-15.726c1.994 0.212 4.018 0.326 6.068 0.326z" fill="#D7A379" /><path d="M447.18 261.888v85.276c0 94.178-76.346 174.472-170.522 174.472-94.178 0-170.522-80.294-170.522-174.472V177.458c0-7.842 8.394-12.838 15.266-9.058 31.498 17.328 111.926 47.452 243.002 4.06a10.33 10.33 0 0 1 12.852 6.008c6.688 16.844 24.87 52.674 64.536 74.366a10.336 10.336 0 0 1 5.388 9.054z" fill="#F0C69E" /><path d="M276.656 502.474c-94.178 0-170.524-76.346-170.524-170.522v37.162c0 94.178 76.346 170.522 170.522 170.522 94.178 0 170.522-76.346 170.522-170.522v-37.162c0.004 94.176-76.342 170.522-170.52 170.522z" fill="#E6BA94" /><path d="M191.574 300.8c-8.618 0-15.606 6.946-15.606 15.514v38.302c0 8.568 6.988 15.514 15.606 15.514s15.606-6.946 15.606-15.514v-38.302c0-8.568-6.988-15.514-15.606-15.514zM358.134 300.8c-8.618 0-15.606 6.946-15.606 15.514v38.302c0 8.568 6.988 15.514 15.606 15.514s15.606-6.946 15.606-15.514v-38.302c0-8.568-6.988-15.514-15.606-15.514zM682.428 300.8c-8.618 0-15.606 6.946-15.606 15.514v38.302c0 8.568 6.988 15.514 15.606 15.514s15.606-6.946 15.606-15.514v-38.302c0-8.568-6.988-15.514-15.606-15.514zM848.988 370.128c8.618 0 15.606-6.946 15.606-15.514v-38.302c0-8.568-6.988-15.514-15.606-15.514s-15.606 6.946-15.606 15.514v38.302c0 8.57 6.986 15.514 15.606 15.514zM200.108 808.974c-8.618 0-15.606 6.946-15.606 15.514v34.378c0 8.568 6.988 15.514 15.606 15.514 8.62 0 15.606-6.946 15.606-15.514v-34.378c0-8.566-6.986-15.514-15.606-15.514zM349.61 808.974c-8.618 0-15.606 6.946-15.606 15.514v34.378c0 8.568 6.988 15.514 15.606 15.514s15.606-6.946 15.606-15.514v-34.378c0-8.566-6.988-15.514-15.606-15.514zM693.254 800.226c-8.618 0-15.606 6.946-15.606 15.514v33.324c0 8.568 6.988 15.514 15.606 15.514s15.606-6.946 15.606-15.514V815.74c0-8.568-6.988-15.514-15.606-15.514zM838.162 800.226c-8.62 0-15.606 6.946-15.606 15.514v33.324c0 8.568 6.986 15.514 15.606 15.514 8.618 0 15.606-6.946 15.606-15.514V815.74c0-8.568-6.988-15.514-15.606-15.514z" fill="#5E6B75" /><path d="M804.396 894.24c-7.978-3.264-17.1 0.516-20.382 8.442-0.032 0.078-4.056 7.654-18.254 7.654s-18.222-7.578-18.254-7.654c-3.282-7.926-12.404-11.706-20.382-8.442-7.972 3.264-11.774 12.336-8.492 20.262 4.134 9.982 18.714 26.874 47.128 26.874s42.992-16.894 47.128-26.874c3.282-7.928-0.52-17-8.492-20.262zM817.702 428.458a15.41 15.41 0 0 0 1.466-6.548c0-8.602-7.014-15.576-15.668-15.576a15.674 15.674 0 0 0-14.51 9.668c-0.536 1.096-5.758 10.7-23.444 10.7-17.688 0-22.908-9.604-23.444-10.7v0.002a15.68 15.68 0 0 0-14.51-9.67c-8.654 0-15.668 6.972-15.668 15.576 0 2.35 0.538 4.57 1.476 6.568 4.664 11.012 20.772 29.374 52.146 29.374 31.394 0 47.504-18.386 52.156-29.394zM308.954 904.088a15.622 15.622 0 0 0-14.512 9.788l-0.014-0.012c-0.446 0.888-4.79 8.672-19.518 8.672-14.726 0-19.07-7.784-19.516-8.672v0.002a15.636 15.636 0 0 0-14.528-9.778c-8.634 0-15.632 6.956-15.632 15.538a15.36 15.36 0 0 0 1.456 6.532c4.224 10.198 19.132 27.454 48.22 27.454s43.998-17.258 48.22-27.454l-0.006-0.002a15.378 15.378 0 0 0 1.462-6.528c0-8.582-6.998-15.54-15.632-15.54zM312.962 406.51a15.606 15.606 0 0 0-14.666 10.23c-0.01-0.008-0.034-0.022-0.032-0.026-0.534 1.09-5.726 10.64-23.322 10.64-17.594 0-22.786-9.552-23.32-10.64 0.002 0.004 0 0 0 0a15.62 15.62 0 0 0-14.698-10.204c-8.626 0-15.616 6.95-15.616 15.524 0 2.48 0.572 4.826 1.61 6.906 4.532 10.944 20.59 29.464 52.026 29.464s47.494-18.52 52.026-29.464c1.04-2.08 1.61-4.426 1.61-6.906 0-8.572-6.992-15.524-15.618-15.524z" fill="#DC4955" /></svg>