<svg class="svg-icon" style="width: 1em; height: 1em;vertical-align: middle;fill: currentColor;overflow: hidden;" viewBox="0 0 1024 1024" version="1.1" xmlns="http://www.w3.org/2000/svg"><path d="M448 794.496 242.752 557.248 301.248 498.752 448 613.504 722.752 370.752 781.248 429.248zM831.776 128c0.064 0.064 0.16 0.16 0.224 0.224l0 767.552c-0.064 0.064-0.16 0.16-0.224 0.224L192.224 896c-0.096-0.064-0.16-0.16-0.224-0.224L192 128.224c0.064-0.096 0.16-0.16 0.224-0.224L64 128l0 768c0 70.4 57.6 128 128 128l640 0c70.4 0 128-57.6 128-128L960 128 831.776 128zM640 128 640 64c0-35.36-28.64-64-64-64l-128 0c-35.36 0-64 28.64-64 64l0 64-128 0 0 128 512 0L768 128 640 128zM576 128l-128 0L448 64l128 0L576 128z"  /></svg>